<?xml version="1.0" encoding="iso-8859-1"?>
<!-- Generator: Adobe Illustrator 19.0.0, SVG Export Plug-In . SVG Version: 6.00 Build 0)  -->
<svg version="1.1" id="Layer_1" xmlns="http://www.w3.org/2000/svg" xmlns:xlink="http://www.w3.org/1999/xlink" x="0px" y="0px"
	 viewBox="0 0 512 512" style="enable-background:new 0 0 512 512;" xml:space="preserve">
<g>
	<g>
		<g>
			<path d="M100.072,215.712c24.44,0,44.336-19.608,44.336-43.72c0-11.106-4.227-21.25-11.168-28.969l53.03-60.332
				c6.03,3.029,12.845,4.749,20.065,4.749c6.296,0,12.284-1.309,17.713-3.651l50.315,57.267
				c-8.049,7.919-13.036,18.862-13.036,30.936c0,24.112,19.888,43.72,44.336,43.72c24.456,0,44.344-19.608,44.344-43.72
				c0-10.879-4.058-20.833-10.748-28.491l53.192-60.516c5.883,2.848,12.492,4.454,19.476,4.454c24.448,0,44.336-19.608,44.336-43.72
				S436.368,0,411.928,0s-44.336,19.608-44.336,43.72c0,11.494,4.526,21.958,11.905,29.769l-52.77,60.036
				c-6.269-3.349-13.444-5.254-21.062-5.254c-6.383,0-12.45,1.347-17.939,3.752l-50.261-57.206
				c8.147-7.931,13.208-18.94,13.208-31.097c0-24.112-19.888-43.72-44.336-43.72c-24.456,0-44.344,19.608-44.344,43.72
				c0,11.268,4.345,21.551,11.468,29.31l-52.915,60.2c-6.129-3.16-13.09-4.958-20.473-4.958c-24.448,0-44.336,19.608-44.336,43.72
				S75.624,215.712,100.072,215.712z M411.928,16c15.624,0,28.336,12.44,28.336,27.72c0,15.28-12.712,27.72-28.336,27.72
				c-15.624,0-28.336-12.44-28.336-27.72C383.592,28.44,396.304,16,411.928,16z M334.008,171.992c0,15.28-12.72,27.72-28.344,27.72
				c-15.624,0-28.336-12.44-28.336-27.72c0-15.28,12.712-27.72,28.336-27.72C321.288,144.272,334.008,156.712,334.008,171.992z
				 M206.336,16c15.624,0,28.336,12.44,28.336,27.72c0,15.28-12.712,27.72-28.336,27.72c-15.624,0-28.344-12.44-28.344-27.72
				C177.992,28.44,190.712,16,206.336,16z M100.072,144.272c15.624,0,28.336,12.44,28.336,27.72c0,15.28-12.712,27.72-28.336,27.72
				c-15.624,0-28.336-12.44-28.336-27.72C71.736,156.712,84.448,144.272,100.072,144.272z"/>
			<path d="M411.928,296.288c-24.448,0-44.336,19.608-44.336,43.72c0,11.495,4.527,21.959,11.905,29.77l-52.77,60.036
				c-6.269-3.35-13.444-5.254-21.063-5.254c-6.37,0-12.425,1.341-17.904,3.736l-50.273-57.212
				c8.135-7.93,13.186-18.93,13.186-31.077c0-24.112-19.888-43.72-44.336-43.72c-24.456,0-44.344,19.608-44.344,43.72
				c0,11.274,4.349,21.562,11.479,29.323l-52.91,60.195c-6.133-3.165-13.099-4.966-20.489-4.966
				c-24.448,0-44.336,19.608-44.336,43.72S75.624,512,100.072,512c24.44,0,44.336-19.608,44.336-43.72
				c0-11.1-4.222-21.239-11.157-28.957l53.035-60.337c6.026,3.025,12.836,4.742,20.05,4.742c6.306,0,12.304-1.313,17.741-3.663
				l50.312,57.256c-8.063,7.921-13.061,18.874-13.061,30.959c0,24.112,19.888,43.72,44.336,43.72
				c24.456,0,44.344-19.608,44.344-43.72c0-10.879-4.058-20.832-10.747-28.49l53.192-60.516c5.882,2.848,12.491,4.454,19.475,4.454
				c24.448,0,44.336-19.608,44.336-43.72S436.376,296.288,411.928,296.288z M100.072,496c-15.624,0-28.336-12.44-28.336-27.72
				c0-15.28,12.712-27.72,28.336-27.72c15.624,0,28.336,12.44,28.336,27.72C128.408,483.56,115.696,496,100.072,496z
				 M177.992,340.008c0-15.28,12.72-27.72,28.344-27.72c15.624,0,28.336,12.44,28.336,27.72c0,15.28-12.712,27.72-28.336,27.72
				C190.712,367.728,177.992,355.288,177.992,340.008z M305.664,496c-15.624,0-28.336-12.44-28.336-27.72
				c0-15.28,12.712-27.72,28.336-27.72c15.624,0,28.344,12.44,28.344,27.72C334.008,483.56,321.288,496,305.664,496z
				 M411.928,367.728c-15.624,0-28.336-12.44-28.336-27.72c0-15.28,12.712-27.72,28.336-27.72c15.624,0,28.336,12.44,28.336,27.72
				C440.264,355.288,427.552,367.728,411.928,367.728z"/>
		</g>
	</g>
</g>
<g>
</g>
<g>
</g>
<g>
</g>
<g>
</g>
<g>
</g>
<g>
</g>
<g>
</g>
<g>
</g>
<g>
</g>
<g>
</g>
<g>
</g>
<g>
</g>
<g>
</g>
<g>
</g>
<g>
</g>
</svg>
